HIERARCHY
ROOT hip
{
	OFFSET 0.000000 0.000000 0.000000 
	CHANNELS 6 Xposition Yposition Zposition Xrotation Zrotation Yrotation
	JOINT abdomen
	{
		OFFSET 0.000000 3.402643 0.000000 
		CHANNELS 3 Xrotation Zrotation Yrotation
		JOINT chest
		{
			OFFSET 0.000000 8.438565 -0.680529 
			CHANNELS 3 Xrotation Zrotation Yrotation
			JOINT neck
			{
				OFFSET 0.000000 10.207942 -0.272212 
				CHANNELS 3 Xrotation Zrotation Yrotation
				JOINT head
				{
					OFFSET 0.000000 3.130431 0.000000 
					CHANNELS 3 Xrotation Zrotation Yrotation
					End Site
					{
						OFFSET 0.000000 3.130435 0.000000 
					}
				}
			}
			JOINT lCollar
			{
				OFFSET 3.470700 6.669187 -0.816635 
				CHANNELS 3 Yrotation Zrotation Xrotation
				JOINT lShldr
				{
					OFFSET 3.198488 0.000000 0.000000 
					CHANNELS 3 Zrotation Yrotation Xrotation
					JOINT lForeArm
					{
						OFFSET 10.139888 0.000000 0.000000 
						CHANNELS 3 Yrotation Zrotation Xrotation
						JOINT lHand
						{
							OFFSET 8.370511 0.000000 0.000000 
							CHANNELS 3 Zrotation Yrotation Xrotation
							End Site
							{
								OFFSET 4.083176 0.000000 0.000000 
							}
						}
					}
				}
			}
			JOINT rCollar
			{
				OFFSET -3.470700 6.669187 -0.816635 
				CHANNELS 3 Yrotation Zrotation Xrotation
				JOINT rShldr
				{
					OFFSET -3.198488 0.000000 0.000000 
					CHANNELS 3 Zrotation Yrotation Xrotation
					JOINT rForeArm
					{
						OFFSET -10.139888 0.000000 0.000000 
						CHANNELS 3 Yrotation Zrotation Xrotation
						JOINT rHand
						{
							OFFSET -8.370511 0.000000 0.000000 
							CHANNELS 3 Zrotation Yrotation Xrotation
							End Site
							{
								OFFSET -4.083176 0.000000 0.000000 
							}
						}
					}
				}
			}
		}
	}
	JOINT lThigh
	{
		OFFSET 5.308129 -1.633274 1.361059 
		CHANNELS 3 Xrotation Zrotation Yrotation
		JOINT lShin
		{
			OFFSET -2.041588 -20.007561 0.000000 
			CHANNELS 3 Xrotation Zrotation Yrotation
			JOINT lFoot
			{
				OFFSET 0.000000 -19.190928 -1.224953 
				CHANNELS 3 Xrotation Yrotation Zrotation
				End Site
				{
					OFFSET 0.000000 -2.449906 4.627600 
				}
			}
		}
	}
	JOINT rThigh
	{
		OFFSET -5.308129 -1.633274 1.361059 
		CHANNELS 3 Xrotation Zrotation Yrotation
		JOINT rShin
		{
			OFFSET 2.041588 -20.007561 0.000000 
			CHANNELS 3 Xrotation Zrotation Yrotation
			JOINT rFoot
			{
				OFFSET 0.000000 -19.190928 -1.224953 
				CHANNELS 3 Xrotation Yrotation Zrotation
				End Site
				{
					OFFSET 0.000000 -2.449906 4.627600 
				}
			}
		}
	}
}
MOTION
Frames: 13
Frame Time: 0.016667
-15.578280 46.144180 3.484059 2.988281 -3.691406 54.287113 0.000000 0.000000 0.000000 24.453123 -2.568359 7.617187 -18.808594 -0.927734 3.232422 -15.498048 -2.734375 6.298829 3.076172 -13.964845 3.925781 -5.986328 -51.679684 -28.503754 -110.771492 3.916016 1.318359 56.777344 -15.126953 -11.877548 5.810547 4.765625 0.917157 13.154297 -6.699219 -20.557779 120.185555 1.152344 5.214647 -50.068359 12.861328 3.476562 -35.041744 4.374704 -7.743058 24.343987 -3.170398 -2.629864 17.864584 -2.767113 -3.782388 -26.458179 -10.370283 12.287813 52.963661 1.386599 4.186663 4.069117 3.809623 -14.149165 
-15.823491 45.963188 3.370210 2.460938 -3.164063 54.521484 0.000000 0.000000 0.000000 26.025391 -1.904297 5.741863 -18.271484 -0.351563 3.574219 -14.433594 -1.953125 7.314121 3.251953 -13.955080 3.967198 -5.039062 -51.337891 -30.232237 -111.835938 3.955078 1.386719 57.490234 -15.244141 -11.164675 6.337891 4.599609 0.887889 11.738281 -3.886719 -22.412107 119.306641 1.132813 5.204885 -49.375004 12.919921 3.652344 -34.296276 4.902281 -6.170027 24.014761 -2.998118 -2.720453 16.980587 -2.195376 -5.803764 -27.092709 -9.491478 13.549088 55.607761 1.212681 4.098464 1.827395 2.331212 -9.460253 
-16.081839 45.764683 3.253443 2.109375 -2.636719 54.560097 0.000000 0.000000 0.000000 26.904299 -1.572266 3.945044 -17.382813 0.087891 4.150390 -12.490234 -1.152344 8.515625 3.437500 -13.779297 3.818359 -4.218750 -49.931641 -30.742184 -112.910156 3.984375 1.455078 58.427734 -15.869141 -10.625000 6.689453 4.804687 1.015625 10.322266 0.498047 -23.710880 118.427734 1.103516 5.204890 -48.720707 13.505859 3.603516 -34.072376 5.418969 -4.561889 23.969521 -3.105780 -3.107516 15.900366 -1.795063 -7.715591 -28.051805 -8.798645 13.573890 58.049656 0.704628 4.317478 0.041468 1.299331 -5.356514 
-16.354786 45.569096 3.136674 1.757813 -2.109375 54.237923 0.000000 0.000000 0.000000 27.246092 -1.259766 2.158203 -15.966799 0.380859 4.960938 -9.677735 -0.507813 9.824218 3.251953 -13.261720 3.752239 -4.023438 -47.285156 -30.407564 -114.150391 4.023438 1.532518 59.052738 -17.050779 -9.914972 7.402343 5.380859 1.240234 8.906251 4.892578 -24.657372 118.076172 1.093750 5.205078 -47.402344 14.501953 3.605963 -33.510880 5.946414 -2.951263 23.621525 -3.105975 -2.899224 15.139672 -1.645857 -9.121690 -28.749168 -8.261635 13.639524 60.160847 0.518964 4.527995 -1.136611 0.304729 -1.967282 
-16.646704 45.399784 3.025744 1.582031 -1.582024 53.740093 0.000000 0.000000 0.000000 27.246092 -1.259766 0.576172 -14.374999 0.644531 5.605579 -6.513672 -0.341797 11.337892 3.056641 -12.753907 3.508015 -4.130859 -43.759766 -28.857420 -115.390625 4.052734 1.610638 59.375000 -18.613281 -9.082031 7.773438 6.484375 1.416016 7.490234 10.341796 -25.253908 118.076172 1.093750 5.205078 -46.113277 15.839844 3.557355 -32.762695 6.454586 -1.691106 22.944269 -2.920298 -2.839357 14.948956 -1.441662 -10.165604 -29.330492 -7.910110 13.046195 61.917564 0.352933 4.530714 -1.550186 -0.179464 -0.081340 
-16.969276 45.274258 2.925033 1.582031 -1.054688 53.046875 0.000000 0.000000 0.000000 26.904299 -1.572266 -0.801049 -12.783204 0.576172 6.337891 -3.349610 -0.693359 12.792969 2.695313 -11.738281 3.203125 -4.394531 -39.521484 -26.552732 -116.455078 4.111328 1.513672 59.541012 -20.361328 -8.271485 7.792968 8.144531 1.894531 6.083984 16.484375 -25.478518 118.251953 1.093750 5.205078 -44.472656 17.216799 4.094690 -32.075821 6.991139 -1.135887 22.055082 -2.998148 -2.610132 15.243540 -1.630063 -10.037135 -29.881344 -7.577857 12.258729 63.137394 0.430920 4.633561 -2.102332 -0.390253 0.579988 
-17.340014 45.201279 2.841835 1.582031 -0.703122 52.001965 0.000000 0.000000 0.000000 26.552734 -2.050781 -2.089844 -11.367187 0.312500 6.914116 -0.537109 -1.220705 14.072037 2.500000 -10.517579 2.931470 -4.824219 -34.755859 -23.443066 -117.529289 4.082031 1.571570 59.746090 -22.460938 -7.275391 7.119140 10.498047 2.578125 4.521484 24.033203 -25.513597 118.251953 1.093750 5.205078 -42.802734 18.242188 4.921875 -31.449989 7.352188 -1.202882 20.970949 -3.095731 -2.739781 15.857904 -1.641258 -9.308007 -29.860224 -7.216694 11.130738 63.657738 0.176924 4.695313 -1.742092 -0.366503 0.600461 
-17.776432 45.177925 2.783451 1.582031 -0.351561 50.781330 0.000000 0.000000 0.000000 26.210938 -2.529297 -3.008243 -10.126953 0.058594 7.656250 1.748047 -1.923828 15.341471 2.490234 -9.482423 2.540671 -4.599609 -29.638670 -20.292973 -118.583984 4.130859 1.639922 59.794926 -24.755859 -6.547057 6.093750 12.792969 3.230259 3.310547 32.109375 -24.697264 118.251953 1.093750 5.205078 -40.917969 18.935547 6.347986 -30.762447 8.064103 -1.544565 19.517815 -3.310481 -2.325575 16.926739 -2.001442 -7.926896 -29.363605 -6.689314 10.338301 63.303879 0.176929 4.483434 -2.085920 -0.216632 -0.107726 
-18.288752 45.185223 2.749881 1.406250 -0.175781 49.384735 0.000000 0.000000 0.000000 25.869143 -3.007812 -3.750512 -9.238281 -0.380859 8.251953 3.330078 -2.802734 16.415539 3.193360 -7.900392 2.032592 -4.873047 -25.214842 -16.547129 -119.296875 4.130859 1.689453 60.048824 -27.207031 -5.576171 4.521484 15.371093 3.896484 2.636719 40.712887 -23.085939 118.427734 1.103516 5.204890 -38.798828 18.935547 7.601220 -29.869381 8.758408 -1.833330 17.920305 -3.337184 -2.415449 18.573263 -2.271213 -6.123911 -29.023653 -6.171699 9.365171 62.101875 0.762960 4.767085 -2.386215 -0.233964 -1.052358 
-18.872591 45.212955 2.741124 1.406250 -0.175781 47.978485 0.000000 0.000000 0.000000 25.351564 -3.339844 -4.404866 -8.349608 -0.830078 8.818239 4.736328 -3.867188 17.470705 3.896484 -7.021484 1.718750 -4.121094 -20.283203 -12.835415 -119.648438 4.179688 1.718750 60.117188 -29.492186 -5.039062 2.919922 17.548828 4.550781 3.759766 48.955078 -19.836386 118.603516 1.113281 5.204888 -36.474609 18.779297 8.857422 -29.011320 9.950280 -2.433840 15.781179 -3.281345 -1.697893 21.003302 -3.110515 -4.416609 -28.421911 -4.941564 8.098731 60.322838 0.776337 4.486670 -3.425693 0.207889 -2.407140 
-19.522112 45.239227 2.749881 1.054688 -0.351561 46.220737 0.000000 0.000000 0.000000 25.185547 -3.505860 -4.824815 -7.988281 -1.103516 9.374812 5.429688 -4.746094 18.525391 5.117188 -5.791016 1.397470 -3.720703 -16.396484 -9.143379 -119.824219 4.199219 1.738281 60.166016 -31.435549 -4.262907 1.279297 19.355400 5.153032 7.363281 56.503906 -14.531250 118.955078 1.123047 5.204887 -33.945313 18.281250 10.126952 -28.457613 11.578578 -3.072040 13.789782 -3.318150 -1.957703 23.343651 -3.283264 -3.159433 -27.802053 -3.886500 7.211914 58.055187 1.124466 4.559426 -4.718699 -0.052368 -3.470551 
-20.222717 45.249443 2.767396 0.703125 -0.703125 44.804565 0.000000 0.000000 0.000000 25.009766 -3.505859 -4.990234 -7.617188 -1.552734 9.950908 5.957031 -5.449219 19.383839 6.347656 -4.570313 1.035156 -3.144531 -13.398438 -5.820313 -119.648438 4.179688 1.718750 60.117188 -32.500000 -3.476563 -0.019531 20.644531 5.439454 13.935547 62.695309 -6.104605 119.306641 1.132813 5.204885 -30.869143 17.656248 12.167969 -27.432480 13.277463 -3.911703 11.760277 -3.511684 -1.476644 25.990541 -3.817032 -2.086191 -27.092451 -2.842018 5.850176 55.775337 1.314003 4.343431 -6.819769 -0.071209 -4.081657 
-20.958355 45.239227 2.780532 0.351563 -0.878905 43.408081 0.000000 0.000000 0.000000 25.185547 -3.505860 -5.176378 -7.441407 -1.708984 10.146484 6.308594 -5.800781 20.068359 7.568359 -3.183594 0.771484 -2.753906 -10.937500 -2.990134 -119.296875 4.130859 1.689453 60.136723 -32.675781 -3.130272 -0.957031 21.611326 5.761718 22.939453 67.080078 4.432822 119.658211 1.142578 5.214649 -27.421875 16.875000 15.120022 -26.779678 15.045362 -4.366679 9.844007 -3.662091 -1.520576 28.464432 -3.956773 -1.834856 -27.066187 -1.767368 4.417462 53.843704 1.242130 4.190182 -8.239048 -0.127072 -3.924243 
